<?xml version="1.0" encoding="UTF-8" standalone="no"?>
<!DOCTYPE svg PUBLIC "-//W3C//DTD SVG 1.1//EN" "http://www.w3.org/Graphics/SVG/1.1/DTD/svg11.dtd">
<svg version="1.1" xmlns="http://www.w3.org/2000/svg" xmlns:xlink="http://www.w3.org/1999/xlink" preserveAspectRatio="xMidYMid meet" viewBox="0 0 512 512" width="512" height="512"><defs><path d="M194.39 72.55L200.13 70.26L205.98 68.18L211.92 66.33L217.97 64.71L224.11 63.32L230.33 62.17L236.64 61.28L243.02 60.63L249.48 60.23L256 60.1L262.52 60.23L268.98 60.63L275.36 61.28L281.67 62.17L287.89 63.32L294.03 64.71L300.08 66.33L306.02 68.18L311.87 70.26L317.61 72.55L323.23 75.06L324.3 75.59L422.67 36.43L428.33 36.43L385.01 126.71L387.28 129.93L390.6 135.06L393.72 140.31L396.65 145.7L399.37 151.2L401.88 156.83L404.18 162.57L406.26 168.41L408.11 174.36L409.73 180.4L411.11 186.54L412.26 192.77L413.16 199.07L413.81 205.46L414.2 211.91L414.33 218.43L414.2 224.96L413.81 231.41L413.16 237.8L412.26 244.1L411.11 250.33L409.73 256.46L408.11 262.51L406.26 268.46L404.18 274.3L401.88 280.04L399.37 285.66L396.65 291.17L393.72 296.56L390.6 301.81L387.28 306.93L383.77 311.92L380.07 316.76L376.2 321.45L372.15 325.99L367.94 330.37L363.56 334.59L359.02 338.63L354.33 342.51L349.48 346.2L344.5 349.71L339.38 353.03L334.12 356.16L328.74 359.08L323.23 361.81L317.61 364.32L311.87 366.61L306.02 368.69L300.08 370.54L294.03 372.16L287.89 373.55L281.67 374.69L275.36 375.59L268.98 376.24L262.52 376.64L256 376.77L249.48 376.64L243.02 376.24L236.64 375.59L230.33 374.69L224.11 373.55L217.97 372.16L211.92 370.54L205.98 368.69L200.13 366.61L194.39 364.32L188.77 361.81L183.26 359.08L177.88 356.16L172.62 353.03L167.5 349.71L162.52 346.2L157.67 342.51L152.98 338.63L148.44 334.59L144.06 330.37L139.85 325.99L135.8 321.45L131.93 316.76L128.23 311.92L124.72 306.93L121.4 301.81L118.28 296.56L115.35 291.17L112.63 285.66L110.12 280.04L107.82 274.3L105.74 268.46L103.89 262.51L102.27 256.46L100.89 250.33L99.74 244.1L98.84 237.8L98.19 231.41L97.8 224.96L97.67 218.43L97.8 211.91L98.19 205.46L98.84 199.07L99.74 192.77L100.89 186.54L102.27 180.4L103.89 174.36L105.74 168.41L107.82 162.57L110.12 156.83L112.63 151.2L115.35 145.7L118.28 140.31L121.4 135.06L124.72 129.93L126.99 126.71L83.67 36.43L89.33 36.43L187.7 75.59L188.77 75.06L188.77 75.06L194.39 72.55Z" id="d2SXWatY3W"></path><path d="M342.17 63.43L423.2 36.43L428.33 36.43L342.17 248.43L256 460.43L169.82 248.43L83.67 36.43L88.8 36.43L169.82 89.1L256 145.1L342.17 89.1L423.2 36.43L342.17 75.6L256 117.25L169.82 75.6L88.8 36.43L169.82 63.43L256 92.13L342.17 63.43ZM169.82 145.1L83.67 36.43L83.67 36.43L169.82 194.1L256 351.77L342.17 194.1L428.33 36.43L342.17 145.1L256 253.77L169.82 145.1Z" id="cVeU1kV2z"></path></defs><g><g><g><use xlink:href="#d2SXWatY3W" opacity="1" fill="#224667" fill-opacity="1"></use></g><g><use xlink:href="#cVeU1kV2z" opacity="1" fill="#2090c1" fill-opacity="1"></use></g></g></g></svg>