<svg xmlns="http://www.w3.org/2000/svg" height="424" width="344.66">
    <path d="M110.72 36.12l5.74-2.29 5.85-2.08 5.94-1.85 6.05-1.62 6.14-1.39 6.22-1.15 6.31-.89 6.38-.65 6.46-.4 6.52-.13 6.52.13 6.46.4 6.38.65 6.31.89 6.22 1.15 6.14 1.39 6.05 1.62 5.94 1.85 5.85 2.08 5.74 2.29 5.62 2.51 1.07.53L339 0h5.66l-43.32 90.28 2.27 3.22 3.32 5.13 3.12 5.25 2.93 5.39 2.72 5.5 2.51 5.63 2.3 5.74 2.08 5.84 1.85 5.95 1.62 6.04 1.38 6.14 1.15 6.23.9 6.3.65 6.39.39 6.45.13 6.52-.13 6.53-.39 6.45-.65 6.39-.9 6.3-1.15 6.23-1.38 6.13-1.62 6.05-1.85 5.95-2.08 5.84-2.3 5.74-2.51 5.62-2.72 5.51-2.93 5.39-3.12 5.25-3.32 5.12-3.51 4.99-3.7 4.84-3.87 4.69-4.05 4.54-4.21 4.38-4.38 4.22-4.54 4.04-4.69 3.88-4.85 3.69-4.98 3.51-5.12 3.32-5.26 3.13-5.38 2.92-5.51 2.73-5.62 2.51-5.74 2.29-5.85 2.08-5.94 1.85-6.05 1.62-6.14 1.39-6.22 1.14-6.31.9-6.38.65-6.46.4-6.52.13-6.52-.13-6.46-.4-6.38-.65-6.31-.9-6.22-1.14-6.14-1.39-6.05-1.62-5.94-1.85-5.85-2.08-5.74-2.29-5.62-2.51-5.51-2.73-5.38-2.92-5.26-3.13-5.12-3.32-4.98-3.51-4.85-3.69-4.69-3.88-4.54-4.04-4.38-4.22-4.21-4.38-4.05-4.54-3.87-4.69-3.7-4.84-3.51-4.99-3.32-5.12-3.12-5.25-2.93-5.39-2.72-5.51-2.51-5.62-2.3-5.74-2.08-5.84-1.85-5.95-1.62-6.05-1.38-6.13-1.15-6.23-.9-6.3-.65-6.39-.39-6.45L14 182l.13-6.52.39-6.45.65-6.39.9-6.3 1.15-6.23 1.38-6.14 1.62-6.04 1.85-5.95 2.08-5.84 2.3-5.74 2.51-5.63 2.72-5.5 2.93-5.39 3.12-5.25 3.32-5.13 2.27-3.22L0 0h5.66l98.37 39.16 1.07-.53z" fill="#224667" id="svg-logo-bg"/>
    <path d="M258.5 27l81.03-27h5.13L258.5 212l-86.17 212-86.18-212L0 0h5.13l81.02 52.67 86.18 56 86.17-56L339.53 0 258.5 39.17l-86.17 41.65-86.18-41.65L5.13 0l81.02 27 86.18 28.7zM86.15 108.67L0 0l86.15 157.67 86.18 157.67 86.17-157.67L344.66 0 258.5 108.67l-86.17 108.67z" fill="#2090c1" id="svg-logo-fg"/>
</svg>