<?xml version="1.0" encoding="UTF-8" standalone="no"?>
<!DOCTYPE svg PUBLIC "-//W3C//DTD SVG 1.1//EN" "http://www.w3.org/Graphics/SVG/1.1/DTD/svg11.dtd">
<svg version="1.1" xmlns="http://www.w3.org/2000/svg" xmlns:xlink="http://www.w3.org/1999/xlink" preserveAspectRatio="xMidYMid meet" viewBox="0 0 512 512" width="512.13" height="512.13"><defs><path d="M414.33 218.43C414.33 305.82 343.39 376.77 256 376.77C168.61 376.77 97.67 305.82 97.67 218.43C97.67 131.05 168.61 60.1 256 60.1C343.39 60.1 414.33 131.05 414.33 218.43Z" id="gmyEeVil"></path><path d="M256 460.43L169.82 248.43L83.67 36.43L88.8 36.43L169.82 89.1L256 145.1L342.17 89.1L423.2 36.43L428.33 36.43L342.17 248.43L256 460.43Z" id="fUpsZFZ3g"></path><path d="M256 351.77L169.82 194.1L83.67 36.43L88.8 36.43L169.82 75.6L256 117.25L342.17 75.6L423.2 36.43L428.33 36.43L342.17 194.1L256 351.77Z" id="bPlUSkpeA"></path><path d="M256 253.77L169.82 145.1L83.67 36.43L88.8 36.43L169.82 63.43L256 92.13L342.17 63.43L423.2 36.43L428.33 36.43L342.17 145.1L256 253.77Z" id="cFkzLnjAw"></path></defs><g><g><g><use xlink:href="#gmyEeVil" opacity="1" fill="#224667" fill-opacity="1"></use></g><g><use xlink:href="#fUpsZFZ3g" opacity="1" fill="#2090c1" fill-opacity="1"></use></g><g><use xlink:href="#bPlUSkpeA" opacity="1" fill="#224667" fill-opacity="1"></use></g><g><use xlink:href="#cFkzLnjAw" opacity="1" fill="#152f3b" fill-opacity="1"></use></g></g></g></svg>